<svg id="Layer_1" data-name="Layer 1" xmlns="http://www.w3.org/2000/svg" viewBox="0 0 512 100.18928"><defs><style>.cls-1{fill:#9fef00;}.cls-2{fill:#141d2b;}</style></defs><path class="cls-1" d="M102.31075,31.4219c.00019-.01392.00275-.02734.00275-.04126a2.99169,2.99169,0,0,0-.91565-2.15108c-.02829-.02807-.06036-.05212-.08986-.07909-.06277-.0559-.12505-.11229-.19285-.16307-.065-.04943-.13469-.09288-.20438-.13682-.03228-.02026-.06148-.04418-.09468-.06335L68.44037,10.09485q-.11736-.06975-.23944-.12913a3.00183,3.00183,0,0,0-2.868.14366L32.98138,28.78687c-.03631.021-.06841.047-.10363.06932-.02465.01563-.05071.02673-.07509.04309-.02374.01587-.044.03552-.06713.05224-.05993.043-.11742.088-.17362.135-.03631.03076-.07217.06152-.10674.094a2.99952,2.99952,0,0,0-.21494.21994l-.00894.01026a2.98913,2.98913,0,0,0-.74734,1.97c0,.01587.0029.03125.00315.04712-.00077.02978-.005.05932-.005.0891l0,37.29908a2.99472,2.99472,0,0,0,1.58006,2.64028L65.4013,90.12712c.02591.01489.05355.02514.0798.03917.06743.03638.13551.07019.2049.10094.04537.02014.09071.03955.13682.05725.07183.0277.14442.0515.21774.07347.04492.01355.08941.02783.13481.03918.08028.02.16127.03454.24259.04773.03924.00647.078.01525.11741.02a2.81371,2.81371,0,0,0,.72671,0c.03943-.00476.07824-.01354.11751-.02.08126-.01331.16218-.02783.2424-.04773.0455-.01135.09008-.02575.13508-.03918.07324-.022.14574-.04577.21747-.07335.04614-.01782.09148-.03723.13689-.05737.06942-.03075.13755-.06468.205-.10094.02618-.01415.0538-.02428.07964-.03917l32.33916-18.6709a2.99471,2.99471,0,0,0,1.58-2.64028l.00009-37.322C102.31539,31.46974,102.31127,31.44607,102.31075,31.4219ZM44.17126,30.16071,66.19457,17.44545a1.40915,1.40915,0,0,1,1.409,0l22.023,12.71489a1.4091,1.4091,0,0,1,0,2.4406L67.60326,45.3162a1.40912,1.40912,0,0,1-1.409,0l-22.023-12.715A1.409,1.409,0,0,1,44.17126,30.16071ZM63.08367,78.49094A1.40572,1.40572,0,0,1,60.975,79.70831L38.9949,67.01808a1.406,1.406,0,0,1-.70288-1.2175V40.42219a1.40575,1.40575,0,0,1,2.10865-1.21737L62.38079,51.89517a1.4058,1.4058,0,0,1,.70288,1.2175ZM95.50543,65.80058a1.406,1.406,0,0,1-.70288,1.2175L72.82242,79.70831a1.40571,1.40571,0,0,1-2.10864-1.21737V53.11267a1.4058,1.4058,0,0,1,.70288-1.2175L93.39679,39.20482a1.40575,1.40575,0,0,1,2.10864,1.21737Z"/><path class="cls-2" d="M153.5788,65.548V53.63177a.759.759,0,0,0-.759-.759H142.36086a.759.759,0,0,0-.759.759V65.548a.759.759,0,0,1-.759.759h-6.36022a.759.759,0,0,1-.759-.759V34.64117a.759.759,0,0,1,.759-.759h6.36022a.759.759,0,0,1,.759.759V45.41882a.759.759,0,0,0,.759.759h10.45891a.759.759,0,0,0,.759-.759V34.64117a.759.759,0,0,1,.759-.759h6.36022a.759.759,0,0,1,.759.759V65.548a.759.759,0,0,1-.759.759h-6.36022A.759.759,0,0,1,153.5788,65.548Z"/><path class="cls-2" d="M178.82768,59.96835l-1.76707,5.8008a.759.759,0,0,1-.72609.53785h-6.66488a.759.759,0,0,1-.71835-1.00419L179.4992,34.396a.759.759,0,0,1,.71835-.51387h9.25177a.759.759,0,0,1,.71835.51386l10.54826,30.9068a.759.759,0,0,1-.71835,1.0042h-6.66166a.759.759,0,0,1-.72742-.54227l-1.726-5.792a.759.759,0,0,0-.72742-.54227H179.55377A.759.759,0,0,0,178.82768,59.96835Zm9.31743-9.19036c-1.18414-3.8715-2.32231-7.87865-3.27888-11.79537h-.09118c-.9562,3.91672-2.04916,7.92387-3.18771,11.79537l-.35414,1.21439a.759.759,0,0,0,.72868.97153h5.83387a.759.759,0,0,0,.72449-.98541Z"/><path class="cls-2" d="M234.32862,45.54038H227.6497a.75784.75784,0,0,1-.745-.6283,5.55322,5.55322,0,0,0-5.87846-4.9273c-4.28067,0-6.92208,3.82554-6.92208,10.10979s2.64141,10.10979,6.83091,10.10979c3.21854,0,5.38566-1.86,6.00616-5.12284a.75651.75651,0,0,1,.74273-.61511h6.75358a.76377.76377,0,0,1,.75468.8612c-.94861,7.51955-6.31253,11.708-14.25715,11.708-9.33557,0-15.07352-6.42138-15.07352-16.94107S211.64505,33.1535,221.0262,33.1535c8.0659,0,13.389,4.47326,14.06024,11.55012A.76367.76367,0,0,1,234.32862,45.54038Z"/><path class="cls-2" d="M271.16241,66.307h-8.01194a.759.759,0,0,1-.633-.34023L252.86029,51.3695h-.09117V65.548a.759.759,0,0,1-.759.759h-6.36059a.759.759,0,0,1-.759-.759V34.64117a.759.759,0,0,1,.759-.759h6.36059a.759.759,0,0,1,.759.759V47.86343h.09117l9.2916-13.64939a.759.759,0,0,1,.62745-.3319h7.485a.759.759,0,0,1,.60182,1.22156L260.35907,48.77525a.759.759,0,0,0-.00793.91456l11.421,15.40613A.759.759,0,0,1,271.16241,66.307Z"/><path class="cls-2" d="M293.16417,38.37554V65.548a.759.759,0,0,1-.759.759h-2.71739a.759.759,0,0,1-.759-.759V38.37554a.759.759,0,0,0-.759-.759h-9.54793a.759.759,0,0,1-.759-.759V34.64117a.759.759,0,0,1,.759-.759h24.84937a.759.759,0,0,1,.759.759v2.21631a.759.759,0,0,1-.759.759H293.9232A.759.759,0,0,0,293.16417,38.37554Z"/><path class="cls-2" d="M333.42247,65.548V52.08332a.759.759,0,0,0-.759-.759H317.65071a.759.759,0,0,0-.759.759V65.548a.759.759,0,0,1-.759.759h-2.6718a.759.759,0,0,1-.759-.759V34.64117a.759.759,0,0,1,.759-.759h2.6718a.759.759,0,0,1,.759.759V46.8761a.759.759,0,0,0,.759.759h15.01273a.759.759,0,0,0,.759-.759V34.64117a.759.759,0,0,1,.759-.759h2.71739a.759.759,0,0,1,.759.759V65.548a.759.759,0,0,1-.759.759H334.1815A.759.759,0,0,1,333.42247,65.548Z"/><path class="cls-2" d="M355.01038,38.37554V47.1044a.759.759,0,0,0,.759.759h14.2385a.759.759,0,0,1,.759.759v2.17036a.759.759,0,0,1-.759.759h-14.2385a.759.759,0,0,0-.759.759v9.50271a.759.759,0,0,0,.759.759h15.69578a.759.759,0,0,1,.759.759V65.548a.759.759,0,0,1-.759.759H351.57954a.759.759,0,0,1-.759-.759V34.64117a.759.759,0,0,1,.759-.759h19.38494a.759.759,0,0,1,.759.759v2.21631a.759.759,0,0,1-.759.759H355.76941A.759.759,0,0,0,355.01038,38.37554Z"/><path class="cls-2" d="M395.31426,33.88214c8.06063,0,11.79463,3.37042,11.79463,8.33377,0,3.78034-1.776,6.10264-5.51039,7.42354v.09043c4.23546.95694,6.33021,3.46159,6.33021,7.55992,0,5.51039-4.37185,9.0172-11.84022,9.0172h-12.6756a.759.759,0,0,1-.759-.759V34.64117a.759.759,0,0,1,.759-.759Zm-4.91851,12.35649a.759.759,0,0,0,.759.759h3.33966c3.50644,0,5.00931-1.13854,5.00931-3.552s-1.45728-3.46085-4.73616-3.46085h-3.61281a.759.759,0,0,0-.759.759Zm0,13.16148a.759.759,0,0,0,.759.759h3.522c3.68842,0,5.1457-1.13854,5.1457-3.598,0-2.59583-1.5025-3.77959-5.28246-3.77959h-3.38524a.759.759,0,0,0-.759.759Z"/><path class="cls-2" d="M446.77568,50.09457c0,10.42852-6.01147,16.94107-15.66577,16.94107-9.70025,0-15.71135-6.51255-15.71135-16.94107s6.0111-16.94107,15.71135-16.94107C440.76421,33.1535,446.77568,39.666,446.77568,50.09457Zm-23.13451,0c0,6.37541,2.73258,10.10979,7.46874,10.10979,4.69058,0,7.42279-3.73438,7.42279-10.10979s-2.73221-10.10979-7.42279-10.10979C426.37375,39.98478,423.64117,43.71915,423.64117,50.09457Z"/><path class="cls-2" d="M479.85553,66.307h-7.47959a.759.759,0,0,1-.67334-.40869l-5.61647-10.79443H465.995l-5.66153,10.79658a.759.759,0,0,1-.67221.40654h-7.43848a.759.759,0,0,1-.64929-1.15216l9.12922-15.07808a.759.759,0,0,0,.00091-.78474l-8.58838-14.25923a.759.759,0,0,1,.6502-1.15065H460.019a.759.759,0,0,1,.6766.415L465.995,44.72057h.09118l5.25439-10.42113a.759.759,0,0,1,.67775-.4173h7.25183a.759.759,0,0,1,.6502,1.15065l-8.58783,14.25833a.759.759,0,0,0,.0017.78605L480.504,65.15353A.759.759,0,0,1,479.85553,66.307Z"/></svg>